# xmcd
#
# Track frame offsets:
#	182
#	13312
#	25000
#	37465
#	49935
#	62192
#	76015
#	97827
#	110062
#	120527
#	133392
#	145032
#	155545
#	166507
#	181347
#	194237
#	205570
#
# Disc length: 2906 seconds
#
# Revision: 2
# Processed by: cddbd v1.5.2PL0 Copyright (c) Steve Scherf et al.
# Submitted via: audiograbber 1.83.01
#
DISCID=ed0b5811
DTITLE=James, Elmore - 16 greatest hits
DYEAR=1900
DGENRE=Blues
TTITLE0=Dust my broom
TTITLE1=Fine little mama
TTITLE2=Happy home
TTITLE3=I need you
TTITLE4=The sky is crying
TTITLE5=It hurts me too
TTITLE6=Something inside of me
TTITLE7=Late hours at midnight
TTITLE8=Done somebody wrong
TTITLE9=Baby please set a date
TTITLE10=Talk to me baby (I can't hold out)
TTITLE11=Take me where you go
TTITLE12=Coming home
TTITLE13=Wild about you baby
TTITLE14=Held my baby last night
TTITLE15=Shake your moneymaker
TTITLE16=Standing at the crossroads
EXTD=
EXTT0=
EXTT1=
EXTT2=
EXTT3=
EXTT4=
EXTT5=
EXTT6=
EXTT7=
EXTT8=
EXTT9=
EXTT10=
EXTT11=
EXTT12=
EXTT13=
EXTT14=
EXTT15=
EXTT16=
PLAYORDER=
